<svg xmlns="http://www.w3.org/2000/svg" width="1920" height="1080"><path d="M2360,-460L1960,-460L2360,-60Z" fill="#414aa3" stroke="#414aa3" stroke-width="1.51"/><path d="M1960,-460L1960,-60L2360,-60Z" fill="#3a449b" stroke="#3a449b" stroke-width="1.51"/><path d="M2360,-60L1960,-60L2360,340Z" fill="#273282" stroke="#273282" stroke-width="1.51"/><path d="M1960,-60L1960,340L2360,340Z" fill="#263185" stroke="#263185" stroke-width="1.51"/><path d="M1960,1140L2360,1140L2360,740Z" fill="#3444b4" stroke="#3444b4" stroke-width="1.51"/><path d="M1960,740L1960,1140L2360,740Z" fill="#3545b5" stroke="#3545b5" stroke-width="1.51"/><path d="M2360,340L1960,340L2360,740Z" fill="#2b3794" stroke="#2b3794" stroke-width="1.51"/><path d="M1960,340L1960,740L2360,740Z" fill="#2f3da1" stroke="#2f3da1" stroke-width="1.51"/><path d="M2360,1140L1960,1140L2360,1540Z" fill="#3140ab" stroke="#3140ab" stroke-width="1.51"/><path d="M1960,1140L1960,1540L2360,1540Z" fill="#3140aa" stroke="#3140aa" stroke-width="1.51"/><path d="M1960,-460L1560,-460L1960,-60Z" fill="#464fad" stroke="#464fad" stroke-width="1.51"/><path d="M1560,-460L1560,-60L1960,-60Z" fill="#3e48a5" stroke="#3e48a5" stroke-width="1.51"/><path d="M1960,-60L1560,-60L1960,340Z" fill="#2b368b" stroke="#2b368b" stroke-width="1.51"/><path d="M1560,-60L1560,340L1960,340Z" fill="#2a358e" stroke="#2a358e" stroke-width="1.51"/><path d="M1960,340L1560,340L1960,740Z" fill="#2e3c9e" stroke="#2e3c9e" stroke-width="1.51"/><path d="M1560,340L1560,740L1960,740Z" fill="#3341ab" stroke="#3341ab" stroke-width="1.51"/><path d="M1960,740L1560,740L1960,1140Z" fill="#3848bc" stroke="#3848bc" stroke-width="1.51"/><path d="M1560,740L1560,1140L1960,1140Z" fill="#3a4ac2" stroke="#3a4ac2" stroke-width="1.51"/><path d="M1960,1140L1560,1140L1960,1540Z" fill="#3544b5" stroke="#3544b5" stroke-width="1.51"/><path d="M1560,1140L1560,1540L1960,1540Z" fill="#3544b4" stroke="#3544b4" stroke-width="1.51"/><path d="M1560,-460L1160,-460L1560,-60Z" fill="#4852b1" stroke="#4852b1" stroke-width="1.51"/><path d="M1160,-460L1160,-60L1560,-60Z" fill="#3d469f" stroke="#3d469f" stroke-width="1.51"/><path d="M1560,-60L1160,-60L1560,340Z" fill="#2d3990" stroke="#2d3990" stroke-width="1.51"/><path d="M1160,-60L1160,340L1560,340Z" fill="#283488" stroke="#283488" stroke-width="1.51"/><path d="M1560,340L1160,340L1560,740Z" fill="#313ea3" stroke="#313ea3" stroke-width="1.51"/><path d="M1160,340L1160,740L1560,740Z" fill="#313fa5" stroke="#313fa5" stroke-width="1.51"/><path d="M1560,740L1160,740L1560,1140Z" fill="#3a4ac1" stroke="#3a4ac1" stroke-width="1.51"/><path d="M1160,740L1160,1140L1560,1140Z" fill="#3848bc" stroke="#3848bc" stroke-width="1.51"/><path d="M1560,1140L1160,1140L1560,1540Z" fill="#3747ba" stroke="#3747ba" stroke-width="1.51"/><path d="M1160,1140L1160,1540L1560,1540Z" fill="#3442ae" stroke="#3442ae" stroke-width="1.51"/><path d="M1160,-60L760,-60L1160,340Z" fill="#26307b" stroke="#26307b" stroke-width="1.51"/><path d="M760,-60L760,340L1160,340Z" fill="#212b73" stroke="#212b73" stroke-width="1.51"/><path d="M1160,340L760,340L1160,740Z" fill="#29358d" stroke="#29358d" stroke-width="1.51"/><path d="M760,340L760,740L1160,740Z" fill="#2a368f" stroke="#2a368f" stroke-width="1.51"/><path d="M1160,740L760,740L1160,1140Z" fill="#3341ab" stroke="#3341ab" stroke-width="1.51"/><path d="M760,740L760,1140L1160,1140Z" fill="#313fa5" stroke="#313fa5" stroke-width="1.51"/><path d="M1160,1140L760,1140L1160,1540Z" fill="#303ea4" stroke="#303ea4" stroke-width="1.51"/><path d="M760,1140L760,1540L1160,1540Z" fill="#2d3998" stroke="#2d3998" stroke-width="1.51"/><path d="M760,-60L1160,-60L1160,-460Z" fill="#374091" stroke="#374091" stroke-width="1.51"/><path d="M760,-460L760,-60L1160,-460Z" fill="#3d4594" stroke="#3d4594" stroke-width="1.51"/><path d="M360,1540L760,1540L760,1140Z" fill="#28338a" stroke="#28338a" stroke-width="1.51"/><path d="M360,1140L360,1540L760,1140Z" fill="#273287" stroke="#273287" stroke-width="1.51"/><path d="M760,-460L360,-460L760,-60Z" fill="#383f86" stroke="#383f86" stroke-width="1.51"/><path d="M360,-460L360,-60L760,-60Z" fill="#2d3474" stroke="#2d3474" stroke-width="1.51"/><path d="M760,-60L360,-60L760,340Z" fill="#202766" stroke="#202766" stroke-width="1.51"/><path d="M360,-60L360,340L760,340Z" fill="#1a225f" stroke="#1a225f" stroke-width="1.51"/><path d="M360,1140L760,1140L760,740Z" fill="#2d3997" stroke="#2d3997" stroke-width="1.51"/><path d="M360,740L360,1140L760,740Z" fill="#2a358d" stroke="#2a358d" stroke-width="1.51"/><path d="M760,340L360,340L760,740Z" fill="#232c78" stroke="#232c78" stroke-width="1.51"/><path d="M360,340L360,740L760,740Z" fill="#232e7a" stroke="#232e7a" stroke-width="1.51"/><path d="M-40,-60L360,-60L360,-460Z" fill="#353b7c" stroke="#353b7c" stroke-width="1.51"/><path d="M-40,-460L-40,-60L360,-460Z" fill="#434a8f" stroke="#434a8f" stroke-width="1.51"/><path d="M-40,1540L360,1540L360,1140Z" fill="#2e378b" stroke="#2e378b" stroke-width="1.51"/><path d="M-40,1140L-40,1540L360,1140Z" fill="#364098" stroke="#364098" stroke-width="1.51"/><path d="M360,740L-40,740L360,1140Z" fill="#333d96" stroke="#333d96" stroke-width="1.51"/><path d="M-40,740L-40,1140L360,1140Z" fill="#3a44a1" stroke="#3a44a1" stroke-width="1.51"/><path d="M360,-60L-40,-60L360,340Z" fill="#252b67" stroke="#252b67" stroke-width="1.51"/><path d="M-40,-60L-40,340L360,340Z" fill="#292f6f" stroke="#292f6f" stroke-width="1.51"/><path d="M-40,740L360,740L360,340Z" fill="#2c3583" stroke="#2c3583" stroke-width="1.51"/><path d="M-40,340L-40,740L360,340Z" fill="#2f3782" stroke="#2f3782" stroke-width="1.51"/><path d="M-40,-460L-440,-460L-40,-60Z" fill="#4f57a0" stroke="#4f57a0" stroke-width="1.51"/><path d="M-440,-460L-440,-60L-40,-60Z" fill="#4d559d" stroke="#4d559d" stroke-width="1.51"/><path d="M-40,-60L-440,-60L-40,340Z" fill="#373e7f" stroke="#373e7f" stroke-width="1.51"/><path d="M-440,-60L-440,340L-40,340Z" fill="#3b4287" stroke="#3b4287" stroke-width="1.51"/><path d="M-40,340L-440,340L-40,740Z" fill="#3c4492" stroke="#3c4492" stroke-width="1.51"/><path d="M-440,340L-440,740L-40,740Z" fill="#454ea4" stroke="#454ea4" stroke-width="1.51"/><path d="M-40,740L-440,740L-40,1140Z" fill="#4650af" stroke="#4650af" stroke-width="1.51"/><path d="M-440,740L-440,1140L-40,1140Z" fill="#4d58bb" stroke="#4d58bb" stroke-width="1.51"/><path d="M-40,1140L-440,1140L-40,1540Z" fill="#434da9" stroke="#434da9" stroke-width="1.51"/><path d="M-440,1140L-440,1540L-40,1540Z" fill="#4851ad" stroke="#4851ad" stroke-width="1.51"/></svg>